<svg width="12" height="17" viewBox="0 0 12 17" fill="none" xmlns="http://www.w3.org/2000/svg">
<path fill-rule="evenodd" clip-rule="evenodd" d="M2.42029 7.59383C2.04183 3.98438 4.02384 1.44572 7.74076 0C5.46483 3.14185 9.68115 6.54517 9.91395 9.80737C10.4589 8.8182 10.7684 7.49837 10.8295 5.73307C13.6166 10.3843 11.3055 17.9864 5.17221 16.8935C4.60908 16.7939 4.06676 16.6043 3.57256 16.3221C1.33565 15.0521 0 12.2838 0 9.63997C0 7.95492 0.677577 6.45109 1.55413 5.25578C1.67118 6.42619 1.92088 7.29915 2.42029 7.59383Z" fill="white"/>
<path fill-rule="evenodd" clip-rule="evenodd" d="M4.4049 12.8081C3.77284 11.0719 3.85997 8.26758 5.63 7.28394C5.643 10.5074 8.62772 10.9183 8.07499 14.359C8.5848 13.7447 8.84231 12.7625 8.88783 11.9863C9.69676 13.9564 9.0621 15.5321 7.90853 16.3346C4.40099 18.775 1.38116 13.8277 3.38918 11.1161C3.45031 11.7221 4.14739 12.6573 4.4049 12.8081Z" fill="#9E0000" fill-opacity="0.65"/>
</svg>
